<?xml version="1.0" encoding="UTF-8" standalone="no"?>
<!-- Generator: Adobe Illustrator 16.0.0, SVG Export Plug-In . SVG Version: 6.00 Build 0)  -->

<svg
   xmlns:dc="http://purl.org/dc/elements/1.1/"
   xmlns:cc="http://creativecommons.org/ns#"
   xmlns:rdf="http://www.w3.org/1999/02/22-rdf-syntax-ns#"
   xmlns:svg="http://www.w3.org/2000/svg"
   xmlns="http://www.w3.org/2000/svg"
   xmlns:sodipodi="http://sodipodi.sourceforge.net/DTD/sodipodi-0.dtd"
   xmlns:inkscape="http://www.inkscape.org/namespaces/inkscape"
   version="1.1"
   id="Capa_1"
   x="0px"
   y="0px"
   width="335.08px"
   height="335.079px"
   viewBox="0 0 335.08 335.079"
   style="enable-background:new 0 0 335.08 335.079;"
   xml:space="preserve"
   sodipodi:docname="book.svg"
   inkscape:version="0.92.4 (5da689c313, 2019-01-14)"><metadata
   id="metadata43"><rdf:RDF><cc:Work
       rdf:about=""><dc:format>image/svg+xml</dc:format><dc:type
         rdf:resource="http://purl.org/dc/dcmitype/StillImage" /></cc:Work></rdf:RDF></metadata><defs
   id="defs41">
		
	</defs><sodipodi:namedview
   pagecolor="#ffffff"
   bordercolor="#666666"
   borderopacity="1"
   objecttolerance="10"
   gridtolerance="10"
   guidetolerance="10"
   inkscape:pageopacity="0"
   inkscape:pageshadow="2"
   inkscape:window-width="2880"
   inkscape:window-height="1541"
   id="namedview39"
   showgrid="false"
   inkscape:zoom="2.817246"
   inkscape:cx="88.013781"
   inkscape:cy="152.86697"
   inkscape:window-x="-11"
   inkscape:window-y="-11"
   inkscape:window-maximized="1"
   inkscape:current-layer="g6" />
<g
   id="g6">
	<g
   id="g855"
   transform="translate(2.1297395,4.9693921)"
   inkscape:export-xdpi="135.39999"
   inkscape:export-ydpi="135.39999"><rect
     ry="10"
     rx="10"
     y="-11.460495"
     x="-11.460007"
     height="358"
     width="358"
     id="rect850"
     style="opacity:1;fill:#ffffff;fill-opacity:0.97802196;stroke:#000000;stroke-width:5;stroke-linejoin:miter;stroke-miterlimit:4;stroke-dasharray:none;stroke-dashoffset:0;stroke-opacity:1" /><path
     d="m 311.17555,145.77501 c -1.355,-10.18601 -1.546,-27.73 7.915,-33.62101 0.169,-0.108 0.295,-0.26399 0.443,-0.39799 7.735,-2.47401 13.088,-5.946 8.886,-10.618 l -114.102,-34.380005 -184.757,25.687 c 0,0 -21.1570001,3.024 -19.267,35.893995 1.026,17.89 6.637,26.676 11.544,31 l -15.1610001,4.569 c -4.208,4.672 1.144,8.145 8.8800001,10.615 0.147,0.138 0.271,0.29301 0.443,0.40101 9.455,5.89599 9.273,23.43799 7.913,33.62599 -33.967,9.64501 -21.7740001,12.788 -21.7740001,12.788 l 7.451,1.803 c -5.241,4.736 -10.44600002,13.71701 -9.47100002,30.75 C 2.0095499,286.755 19.38755,289.023 19.38755,289.023 l 120.904,39.29801 182.49,-44.202 c 0,0 12.197,-3.148 -21.779,-12.794 -1.366,-10.17201 -1.556,-27.712 7.921,-33.623 0.174,-0.105 0.301,-0.264 0.442,-0.396 7.736,-2.474 13.084,-5.943 8.881,-10.615 l -7.932,-2.395 c 5.29,-3.19 13.236,-11.527 14.481,-33.183 0.859,-14.896 -3.027,-23.62 -7.525,-28.756 l 15.678,-3.794 c 10e-4,0.006 12.198,-3.142 -21.773,-12.788 z m -152.642,-0.42101 30.688,-6.30699 103.708,-21.312 15.451,-3.178 c -4.937,9.036 -4.73,21.40199 -3.913,29.35 0.179,1.798 0.385,3.44 0.585,4.688 l -16.912,4.20499 -130.897,32.563 z m -131.823,31.983 15.449,3.178 99.597,20.474 8.701,1.782 v 0 0 l 26.093,5.363 1.287,40.01 -134.534,-33.471 -13.263,-3.296 c 0.195,-1.25 0.401,-2.89 0.588,-4.69299 0.812,-7.94201 1.023,-20.31101 -3.918,-29.34701 z m -6.002,-50.58 c -0.187,-8.743 1.371,-15.066 4.52,-18.28 2.004,-2.052 4.369,-2.479 5.991,-2.479 0.857,0 1.474,0.119 1.516,0.119 l 79.607,25.953 39.717,12.949 -1.303,40.289 -111.422,-31.238 -5.88,-1.647 c -0.216,-0.061 -0.509,-0.103 -0.735,-0.113 -0.459,-0.033 -11.475,-1.04699 -12.011,-25.553 z m 119.871,184.109 -117.299,-32.886 c -0.217,-0.063 -0.507,-0.105 -0.733,-0.116 -0.467,-0.031 -11.488,-1.044 -12.021,-25.544 -0.19,-8.754 1.376,-15.071 4.519,-18.288 2.009,-2.052 4.375,-2.479 5.994,-2.479 0.859,0 1.474,0.115 1.519,0.115 0,0 0.005,0 0,0 l 119.316,38.908 z m 153.705,-41.407 c 0.185,1.80401 0.391,3.44301 0.591,4.69301 l -147.812,36.77099 1.292,-40.01 31.601,-6.497 4.667,1.129 17.492,-5.685 80.631,-16.569 15.457,-3.18 c -4.942,9.035 -4.737,21.406 -3.919,29.348 z m 8.142,-54.375 c -0.269,0.006 -0.538,0.042 -0.791,0.122 l -11.148,3.12101 -106.148,29.764 -1.298,-40.28901 34.826,-11.35899 84.327,-27.50101 c 0.011,-0.005 4.436,-0.988 7.684,2.315 3.144,3.214 4.704,9.53701 4.52,18.28001 -0.55,24.49799 -11.571,25.51599 -11.972,25.54699 z"
     id="path2"
     inkscape:connector-curvature="0" /></g>
</g>
<g
   id="g8">
</g>
<g
   id="g10">
</g>
<g
   id="g12">
</g>
<g
   id="g14">
</g>
<g
   id="g16">
</g>
<g
   id="g18">
</g>
<g
   id="g20">
</g>
<g
   id="g22">
</g>
<g
   id="g24">
</g>
<g
   id="g26">
</g>
<g
   id="g28">
</g>
<g
   id="g30">
</g>
<g
   id="g32">
</g>
<g
   id="g34">
</g>
<g
   id="g36">
</g>
</svg>