<?xml version="1.0" standalone="no"?>
<!DOCTYPE svg PUBLIC "-//W3C//DTD SVG 20010904//EN"
 "http://www.w3.org/TR/2001/REC-SVG-20010904/DTD/svg10.dtd">
<svg version="1.0" xmlns="http://www.w3.org/2000/svg"
 width="450.000000pt" height="450.000000pt" viewBox="0 0 450.000000 450.000000"
 preserveAspectRatio="xMidYMid meet">
<metadata>
Created by potrace 1.11, written by Peter Selinger 2001-2013
</metadata>
<g transform="translate(0.000000,450.000000) scale(0.100000,-0.100000)"
fill="#000000" stroke="none">
<path d="M2795 3988 c-27 -4 -72 -10 -100 -13 -27 -4 -63 -9 -80 -12 -16 -3
-41 -6 -55 -8 -47 -6 -329 -45 -357 -49 -15 -3 -66 -10 -113 -16 -145 -19
-154 -20 -195 -27 -22 -3 -49 -7 -60 -8 -11 -2 -58 -8 -105 -15 -47 -6 -101
-13 -120 -16 -34 -4 -63 -8 -125 -18 -63 -10 -182 -26 -230 -31 -27 -3 -61 -8
-75 -10 -43 -8 -82 -14 -170 -25 -102 -13 -107 -14 -285 -40 -77 -11 -156 -22
-175 -24 -175 -22 -172 -21 -216 -44 -101 -52 -172 -162 -189 -294 -7 -47 -7
-198 -1 -239 19 -129 69 -259 121 -312 15 -16 25 -29 24 -31 -2 -1 -49 -16
-104 -32 -87 -26 -101 -33 -109 -57 -8 -22 -6 -31 14 -52 13 -14 46 -33 73
-43 62 -21 121 -86 144 -156 11 -35 17 -93 19 -183 l2 -132 -111 -36 c-208
-68 -266 -118 -170 -144 21 -6 46 -11 56 -11 23 0 23 -2 -23 -69 -60 -88 -81
-183 -76 -336 8 -198 53 -331 144 -420 45 -45 67 -54 272 -120 114 -36 622
-201 1174 -381 l290 -94 145 36 c81 19 155 37 166 40 11 2 47 10 80 18 33 9
137 33 230 56 94 22 213 51 265 65 52 13 106 26 120 29 14 2 138 32 275 66
138 33 260 63 272 66 13 2 125 29 250 60 126 30 311 75 413 100 102 25 202 49
223 55 88 23 20 77 -183 144 -47 15 -88 30 -92 34 -14 12 -17 145 -7 226 6 44
22 103 36 132 23 50 76 103 101 103 12 0 78 35 100 52 6 6 12 23 12 38 0 33
-11 43 -71 60 l-46 14 46 46 c91 91 142 248 143 445 1 125 -29 246 -78 311
l-23 32 114 27 c63 15 117 31 120 35 19 31 -53 75 -209 126 -77 25 -102 37
-108 54 -4 12 -6 74 -4 139 6 189 41 256 165 316 77 37 104 71 84 103 -11 19
-40 30 -183 72 -52 15 -169 51 -260 78 -91 28 -181 55 -200 60 -19 6 -64 19
-100 30 -36 11 -180 54 -320 97 -140 42 -304 92 -365 110 -60 19 -119 34 -130
33 -11 -1 -42 -6 -70 -10z m-2250 -552 c96 -30 479 -154 1135 -368 102 -33
223 -73 270 -88 l85 -29 -3 -223 c-4 -283 -6 -313 -23 -312 -12 1 -1142 315
-1309 364 -36 10 -117 33 -180 51 -128 36 -147 47 -183 104 -40 66 -52 128
-52 275 0 122 2 140 24 184 19 37 34 53 64 66 22 10 45 17 51 15 6 -2 61 -19
121 -39z m3579 -113 c-8 -21 -21 -70 -28 -110 -13 -72 -14 -252 -2 -290 6 -20
-13 -29 -104 -48 -8 -2 -44 -11 -80 -20 -62 -16 -77 -20 -119 -29 -10 -3 -391
-97 -846 -210 -454 -113 -828 -206 -830 -206 -3 0 2 223 10 385 2 39 3 89 4
111 1 39 3 42 33 47 18 3 177 35 353 72 176 36 334 68 350 71 17 3 46 9 65 14
19 5 49 11 65 14 39 6 95 17 299 60 93 20 183 39 200 41 17 3 38 8 46 10 8 2
26 6 40 9 14 2 126 25 250 51 124 26 239 49 255 52 17 3 32 7 34 9 16 15 19
-2 5 -33z m33 -725 c45 -42 66 -124 64 -243 -3 -122 -19 -197 -57 -263 -38
-65 -42 -67 -349 -150 -151 -41 -564 -157 -650 -182 -165 -48 -676 -190 -683
-190 -5 0 -9 15 -9 33 0 17 -3 138 -7 268 l-7 236 268 88 c147 48 365 118 483
157 297 96 680 222 770 252 88 30 141 28 177 -6z m-3532 -137 c83 -17 161 -32
175 -35 14 -2 57 -11 95 -20 39 -8 82 -17 95 -20 103 -20 346 -70 445 -91 66
-14 130 -27 142 -29 20 -4 141 -29 198 -40 11 -3 53 -12 92 -20 40 -9 85 -18
100 -21 33 -6 42 -7 148 -30 44 -9 87 -18 95 -20 8 -2 44 -9 80 -15 36 -7 68
-16 72 -19 14 -12 30 -531 17 -531 -5 0 -163 39 -352 86 -188 47 -351 88 -362
90 -11 2 -74 18 -140 35 -66 17 -127 32 -135 34 -8 2 -172 42 -365 90 -417
103 -357 88 -490 121 -60 14 -115 30 -121 35 -7 6 -8 26 -4 56 17 110 1 269
-35 365 l-14 36 57 -13 c31 -7 125 -27 207 -44z m-150 -730 c99 -33 342 -112
540 -176 665 -216 850 -276 871 -285 17 -7 20 -16 18 -57 -1 -26 -5 -145 -9
-263 -4 -118 -9 -217 -11 -219 -2 -2 -281 74 -621 169 -340 95 -690 192 -778
217 -216 60 -241 70 -269 106 -77 102 -99 369 -40 494 19 38 58 67 96 71 12 1
104 -25 203 -57z m3525 -64 c0 -1 -9 -25 -19 -53 -31 -81 -39 -178 -28 -363
l2 -35 -415 -104 c-430 -108 -525 -131 -550 -137 -8 -2 -216 -53 -461 -114
-621 -155 -557 -144 -553 -95 1 22 5 140 9 264 3 123 8 227 11 229 2 3 10 6
17 7 39 6 81 14 152 29 44 9 120 25 168 35 55 12 98 16 115 11 20 -6 54 0 122
22 111 35 185 56 220 62 14 2 93 18 175 36 83 17 161 33 175 35 21 4 143 29
190 39 8 2 83 17 165 34 265 53 449 92 452 94 3 3 53 7 53 4z"/>
</g>
</svg>
